<svg width="86" height="70" viewBox="0 0 86 70" fill="none" xmlns="http://www.w3.org/2000/svg">
<g filter="url(#filter0_f)">
<path d="M41.9505 3.51036C42.5424 3.19174 43.2547 3.19174 43.8466 3.51036L73.0634 19.239C74.8931 20.2239 74.1933 23 72.1154 23H13.6817C11.6038 23 10.904 20.2239 12.7337 19.239L41.9505 3.51036Z" stroke="url(#paint0_linear)" stroke-width="2"/>
<rect x="20.2666" y="23.48" width="7.46667" height="32" rx="1" stroke="url(#paint1_linear)" stroke-width="2"/>
<path d="M57.6001 24.48C57.6001 23.9277 58.0478 23.48 58.6001 23.48H64.0667C64.619 23.48 65.0667 23.9277 65.0667 24.48V54.48C65.0667 55.0323 64.619 55.48 64.0667 55.48H58.6001C58.0478 55.48 57.6001 55.0323 57.6001 54.48V24.48Z" stroke="url(#paint2_linear)" stroke-width="2"/>
<rect x="17.0667" y="55.9066" width="13.8667" height="4.26667" rx="1" stroke="url(#paint3_linear)" stroke-width="2"/>
<rect x="54.3999" y="55.9066" width="13.8667" height="4.26667" rx="1" stroke="url(#paint4_linear)" stroke-width="2"/>
<circle cx="42.8801" cy="16.3333" r="3.73333" stroke="url(#paint5_linear)" stroke-width="2"/>
<rect x="13.8667" y="60.6" width="57.6" height="6.4" rx="1" stroke="url(#paint6_linear)" stroke-width="2"/>
</g>
<g filter="url(#filter1_f)">
<path d="M41.9505 3.51036C42.5424 3.19174 43.2547 3.19174 43.8466 3.51036L73.0634 19.239C74.8931 20.2239 74.1933 23 72.1154 23H13.6817C11.6038 23 10.904 20.2239 12.7337 19.239L41.9505 3.51036Z" stroke="url(#paint7_linear)" stroke-width="2"/>
<rect x="20.2666" y="23.48" width="7.46667" height="32" rx="1" stroke="url(#paint8_linear)" stroke-width="2"/>
<path d="M57.6001 24.48C57.6001 23.9277 58.0478 23.48 58.6001 23.48H64.0667C64.619 23.48 65.0667 23.9277 65.0667 24.48V54.48C65.0667 55.0323 64.619 55.48 64.0667 55.48H58.6001C58.0478 55.48 57.6001 55.0323 57.6001 54.48V24.48Z" stroke="url(#paint9_linear)" stroke-width="2"/>
<rect x="17.0667" y="55.9066" width="13.8667" height="4.26667" rx="1" stroke="url(#paint10_linear)" stroke-width="2"/>
<rect x="54.3999" y="55.9066" width="13.8667" height="4.26667" rx="1" stroke="url(#paint11_linear)" stroke-width="2"/>
<circle cx="42.8801" cy="16.3333" r="3.73333" stroke="url(#paint12_linear)" stroke-width="2"/>
<rect x="13.8667" y="60.6" width="57.6" height="6.4" rx="1" stroke="url(#paint13_linear)" stroke-width="2"/>
</g>
<path d="M41.9505 3.51036C42.5424 3.19174 43.2547 3.19174 43.8466 3.51036L73.0634 19.239C74.8931 20.2239 74.1933 23 72.1154 23H13.6817C11.6038 23 10.904 20.2239 12.7337 19.239L41.9505 3.51036Z" stroke="url(#paint14_linear)" stroke-width="0.6"/>
<rect x="20.2666" y="23.0534" width="7.46667" height="32.64" stroke="url(#paint15_linear)" stroke-width="0.6"/>
<path d="M57.6001 23.0534H65.0667V55.6934H57.6001V23.0534Z" stroke="url(#paint16_linear)" stroke-width="0.6"/>
<rect x="17.0667" y="55.9066" width="13.8667" height="4.26667" rx="1" stroke="url(#paint17_linear)" stroke-width="0.6"/>
<rect x="54.3999" y="55.9066" width="13.8667" height="4.26667" rx="1" stroke="url(#paint18_linear)" stroke-width="0.6"/>
<circle cx="42.8801" cy="16.3333" r="3.73333" stroke="url(#paint19_linear)" stroke-width="0.6"/>
<rect x="13.8667" y="60.6" width="57.6" height="6.4" rx="1" stroke="url(#paint20_linear)" stroke-width="0.6"/>
<g filter="url(#filter2_f)">
<path d="M39.4666 44.7902H39.9284C40.0054 45.7489 40.3063 46.4836 40.8311 46.9944C41.3559 47.5052 42.1396 47.8096 43.1822 47.9076V41.7779C41.6078 40.8052 40.5582 39.9445 40.0334 39.1958C39.6625 38.664 39.4771 38.0168 39.4771 37.254C39.4771 36.3934 39.7955 35.6411 40.4322 34.9974C41.076 34.3536 41.9926 33.9653 43.1822 33.8323V32.8667H43.854V33.8323C44.4277 33.8673 44.9106 33.9338 45.3024 34.0317C45.5054 34.0807 46.1771 34.3221 47.3177 34.756V37.8943H46.9083C46.8174 36.7817 46.527 35.97 46.0371 35.4592C45.5543 34.9414 44.8266 34.6335 43.854 34.5356V39.8676C45.6173 41.0991 46.7474 42.0088 47.2442 42.5966C47.748 43.1773 47.9999 43.9016 47.9999 44.7693C47.9999 45.7349 47.6326 46.5851 46.8978 47.3198C46.1701 48.0545 45.1555 48.4779 43.854 48.5898V49.9333H43.1822V48.5898C42.5244 48.5619 41.9122 48.4849 41.3454 48.3589C40.7786 48.24 40.1523 48.0405 39.4666 47.7606V44.7902ZM43.1822 39.4267V34.546C42.4825 34.63 41.9612 34.8539 41.6183 35.2178C41.2824 35.5747 41.1145 36.026 41.1145 36.5718C41.1145 37.0826 41.2684 37.5619 41.5763 38.0098C41.8842 38.4506 42.4195 38.9229 43.1822 39.4267ZM43.854 47.9076C44.3788 47.8166 44.7811 47.6872 45.061 47.5192C45.4529 47.2743 45.7607 46.9559 45.9847 46.5641C46.2156 46.1652 46.331 45.7419 46.331 45.2941C46.331 44.8322 46.1911 44.3949 45.9112 43.9821C45.6383 43.5692 44.9525 42.9849 43.854 42.2292V47.9076Z" stroke="url(#paint21_linear)"/>
</g>
<g filter="url(#filter3_f)">
<path d="M39.4666 44.7902H39.9284C40.0054 45.7489 40.3063 46.4836 40.8311 46.9944C41.3559 47.5052 42.1396 47.8096 43.1822 47.9076V41.7779C41.6078 40.8052 40.5582 39.9445 40.0334 39.1958C39.6625 38.664 39.4771 38.0168 39.4771 37.254C39.4771 36.3934 39.7955 35.6411 40.4322 34.9974C41.076 34.3536 41.9926 33.9653 43.1822 33.8323V32.8667H43.854V33.8323C44.4277 33.8673 44.9106 33.9338 45.3024 34.0317C45.5054 34.0807 46.1771 34.3221 47.3177 34.756V37.8943H46.9083C46.8174 36.7817 46.527 35.97 46.0371 35.4592C45.5543 34.9414 44.8266 34.6335 43.854 34.5356V39.8676C45.6173 41.0991 46.7474 42.0088 47.2442 42.5966C47.748 43.1773 47.9999 43.9016 47.9999 44.7693C47.9999 45.7349 47.6326 46.5851 46.8978 47.3198C46.1701 48.0545 45.1555 48.4779 43.854 48.5898V49.9333H43.1822V48.5898C42.5244 48.5619 41.9122 48.4849 41.3454 48.3589C40.7786 48.24 40.1523 48.0405 39.4666 47.7606V44.7902ZM43.1822 39.4267V34.546C42.4825 34.63 41.9612 34.8539 41.6183 35.2178C41.2824 35.5747 41.1145 36.026 41.1145 36.5718C41.1145 37.0826 41.2684 37.5619 41.5763 38.0098C41.8842 38.4506 42.4195 38.9229 43.1822 39.4267ZM43.854 47.9076C44.3788 47.8166 44.7811 47.6872 45.061 47.5192C45.4529 47.2743 45.7607 46.9559 45.9847 46.5641C46.2156 46.1652 46.331 45.7419 46.331 45.2941C46.331 44.8322 46.1911 44.3949 45.9112 43.9821C45.6383 43.5692 44.9525 42.9849 43.854 42.2292V47.9076Z" stroke="url(#paint22_linear)"/>
</g>
<path d="M39.4666 44.7902H39.9284C40.0054 45.7489 40.3063 46.4836 40.8311 46.9944C41.3559 47.5052 42.1396 47.8096 43.1822 47.9076V41.7779C41.6078 40.8052 40.5582 39.9445 40.0334 39.1958C39.6625 38.664 39.4771 38.0168 39.4771 37.254C39.4771 36.3934 39.7955 35.6411 40.4322 34.9974C41.076 34.3536 41.9926 33.9653 43.1822 33.8323V32.8667H43.854V33.8323C44.4277 33.8673 44.9106 33.9338 45.3024 34.0317C45.5054 34.0807 46.1771 34.3221 47.3177 34.756V37.8943H46.9083C46.8174 36.7817 46.527 35.97 46.0371 35.4592C45.5543 34.9414 44.8266 34.6335 43.854 34.5356V39.8676C45.6173 41.0991 46.7474 42.0088 47.2442 42.5966C47.748 43.1773 47.9999 43.9016 47.9999 44.7693C47.9999 45.7349 47.6326 46.5851 46.8978 47.3198C46.1701 48.0545 45.1555 48.4779 43.854 48.5898V49.9333H43.1822V48.5898C42.5244 48.5619 41.9122 48.4849 41.3454 48.3589C40.7786 48.24 40.1523 48.0405 39.4666 47.7606V44.7902ZM43.1822 39.4267V34.546C42.4825 34.63 41.9612 34.8539 41.6183 35.2178C41.2824 35.5747 41.1145 36.026 41.1145 36.5718C41.1145 37.0826 41.2684 37.5619 41.5763 38.0098C41.8842 38.4506 42.4195 38.9229 43.1822 39.4267ZM43.854 47.9076C44.3788 47.8166 44.7811 47.6872 45.061 47.5192C45.4529 47.2743 45.7607 46.9559 45.9847 46.5641C46.2156 46.1652 46.331 45.7419 46.331 45.2941C46.331 44.8322 46.1911 44.3949 45.9112 43.9821C45.6383 43.5692 44.9525 42.9849 43.854 42.2292V47.9076Z" stroke="url(#paint23_linear)" stroke-width="0.5"/>
<defs>
<filter id="filter0_f" x="8.67691" y="0.271393" width="68.4433" height="69.7286" filterUnits="userSpaceOnUse" color-interpolation-filters="sRGB">
<feFlood flood-opacity="0" result="BackgroundImageFix"/>
<feBlend mode="normal" in="SourceGraphic" in2="BackgroundImageFix" result="shape"/>
<feGaussianBlur stdDeviation="1" result="effect1_foregroundBlur"/>
</filter>
<filter id="filter1_f" x="8.67691" y="0.271393" width="68.4433" height="69.7286" filterUnits="userSpaceOnUse" color-interpolation-filters="sRGB">
<feFlood flood-opacity="0" result="BackgroundImageFix"/>
<feBlend mode="normal" in="SourceGraphic" in2="BackgroundImageFix" result="shape"/>
<feGaussianBlur stdDeviation="1" result="effect1_foregroundBlur"/>
</filter>
<filter id="filter2_f" x="37.9666" y="31.3667" width="11.5333" height="20.0667" filterUnits="userSpaceOnUse" color-interpolation-filters="sRGB">
<feFlood flood-opacity="0" result="BackgroundImageFix"/>
<feBlend mode="normal" in="SourceGraphic" in2="BackgroundImageFix" result="shape"/>
<feGaussianBlur stdDeviation="0.5" result="effect1_foregroundBlur"/>
</filter>
<filter id="filter3_f" x="37.9666" y="31.3667" width="11.5333" height="20.0667" filterUnits="userSpaceOnUse" color-interpolation-filters="sRGB">
<feFlood flood-opacity="0" result="BackgroundImageFix"/>
<feBlend mode="normal" in="SourceGraphic" in2="BackgroundImageFix" result="shape"/>
<feGaussianBlur stdDeviation="0.5" result="effect1_foregroundBlur"/>
</filter>
<linearGradient id="paint0_linear" x1="6.4" y1="29.6667" x2="79.4667" y2="29.6667" gradientUnits="userSpaceOnUse">
<stop stop-color="#FF00B8"/>
<stop offset="1" stop-color="#00D1FF"/>
</linearGradient>
<linearGradient id="paint1_linear" x1="4.2666" y1="55.2667" x2="78.3999" y2="55.2667" gradientUnits="userSpaceOnUse">
<stop stop-color="#FF00B8"/>
<stop offset="1" stop-color="#00D1FF"/>
</linearGradient>
<linearGradient id="paint2_linear" x1="7.46673" y1="55.2667" x2="78.4001" y2="55.2667" gradientUnits="userSpaceOnUse">
<stop stop-color="#FF00B8"/>
<stop offset="1" stop-color="#00D1FF"/>
</linearGradient>
<linearGradient id="paint3_linear" x1="2.13332" y1="60.6" x2="78.9333" y2="60.6" gradientUnits="userSpaceOnUse">
<stop stop-color="#FF00B8"/>
<stop offset="1" stop-color="#00D1FF"/>
</linearGradient>
<linearGradient id="paint4_linear" x1="9.59994" y1="60.6" x2="76.2666" y2="60.6" gradientUnits="userSpaceOnUse">
<stop stop-color="#FF00B8"/>
<stop offset="1" stop-color="#00D1FF"/>
</linearGradient>
<linearGradient id="paint5_linear" x1="7.46674" y1="20.0666" x2="78.9334" y2="20.0666" gradientUnits="userSpaceOnUse">
<stop stop-color="#FF00B8"/>
<stop offset="1" stop-color="#00D1FF"/>
</linearGradient>
<linearGradient id="paint6_linear" x1="7.4667" y1="67" x2="77.8667" y2="67" gradientUnits="userSpaceOnUse">
<stop stop-color="#FF00B8"/>
<stop offset="1" stop-color="#00D1FF"/>
</linearGradient>
<linearGradient id="paint7_linear" x1="6.4" y1="29.6667" x2="79.4667" y2="29.6667" gradientUnits="userSpaceOnUse">
<stop stop-color="#FF00B8"/>
<stop offset="1" stop-color="#00D1FF"/>
</linearGradient>
<linearGradient id="paint8_linear" x1="4.2666" y1="55.2667" x2="78.3999" y2="55.2667" gradientUnits="userSpaceOnUse">
<stop stop-color="#FF00B8"/>
<stop offset="1" stop-color="#00D1FF"/>
</linearGradient>
<linearGradient id="paint9_linear" x1="7.46673" y1="55.2667" x2="78.4001" y2="55.2667" gradientUnits="userSpaceOnUse">
<stop stop-color="#FF00B8"/>
<stop offset="1" stop-color="#00D1FF"/>
</linearGradient>
<linearGradient id="paint10_linear" x1="2.13332" y1="60.6" x2="78.9333" y2="60.6" gradientUnits="userSpaceOnUse">
<stop stop-color="#FF00B8"/>
<stop offset="1" stop-color="#00D1FF"/>
</linearGradient>
<linearGradient id="paint11_linear" x1="9.59994" y1="60.6" x2="76.2666" y2="60.6" gradientUnits="userSpaceOnUse">
<stop stop-color="#FF00B8"/>
<stop offset="1" stop-color="#00D1FF"/>
</linearGradient>
<linearGradient id="paint12_linear" x1="7.46674" y1="20.0666" x2="78.9334" y2="20.0666" gradientUnits="userSpaceOnUse">
<stop stop-color="#FF00B8"/>
<stop offset="1" stop-color="#00D1FF"/>
</linearGradient>
<linearGradient id="paint13_linear" x1="7.4667" y1="67" x2="77.8667" y2="67" gradientUnits="userSpaceOnUse">
<stop stop-color="#FF00B8"/>
<stop offset="1" stop-color="#00D1FF"/>
</linearGradient>
<linearGradient id="paint14_linear" x1="6.4" y1="29.6667" x2="79.4667" y2="29.6667" gradientUnits="userSpaceOnUse">
<stop stop-color="#FFAEE8"/>
<stop offset="1" stop-color="#B0F1FF"/>
</linearGradient>
<linearGradient id="paint15_linear" x1="4.2666" y1="55.4758" x2="78.3999" y2="55.4758" gradientUnits="userSpaceOnUse">
<stop stop-color="#FFAEE8"/>
<stop offset="1" stop-color="#B0F1FF"/>
</linearGradient>
<linearGradient id="paint16_linear" x1="7.46673" y1="55.4758" x2="78.4001" y2="55.4758" gradientUnits="userSpaceOnUse">
<stop stop-color="#FFAEE8"/>
<stop offset="1" stop-color="#B0F1FF"/>
</linearGradient>
<linearGradient id="paint17_linear" x1="2.13332" y1="60.6" x2="78.9333" y2="60.6" gradientUnits="userSpaceOnUse">
<stop stop-color="#FFAEE8"/>
<stop offset="1" stop-color="#B0F1FF"/>
</linearGradient>
<linearGradient id="paint18_linear" x1="9.59994" y1="60.6" x2="76.2666" y2="60.6" gradientUnits="userSpaceOnUse">
<stop stop-color="#FFAEE8"/>
<stop offset="1" stop-color="#B0F1FF"/>
</linearGradient>
<linearGradient id="paint19_linear" x1="7.46674" y1="20.0666" x2="78.9334" y2="20.0666" gradientUnits="userSpaceOnUse">
<stop stop-color="#FFAEE8"/>
<stop offset="1" stop-color="#B0F1FF"/>
</linearGradient>
<linearGradient id="paint20_linear" x1="7.4667" y1="67" x2="77.8667" y2="67" gradientUnits="userSpaceOnUse">
<stop stop-color="#FFAEE8"/>
<stop offset="1" stop-color="#B0F1FF"/>
</linearGradient>
<linearGradient id="paint21_linear" x1="15.1753" y1="43.7559" x2="73.8094" y2="44.5935" gradientUnits="userSpaceOnUse">
<stop stop-color="#FF00B8"/>
<stop offset="1" stop-color="#00D1FF"/>
</linearGradient>
<linearGradient id="paint22_linear" x1="15.1753" y1="43.7559" x2="72.9718" y2="43.7559" gradientUnits="userSpaceOnUse">
<stop stop-color="#FF00B8"/>
<stop offset="1" stop-color="#00D1FF"/>
</linearGradient>
<linearGradient id="paint23_linear" x1="11.8248" y1="49.6193" x2="73.8094" y2="49.6193" gradientUnits="userSpaceOnUse">
<stop stop-color="#FFAEE8"/>
<stop offset="1" stop-color="#B0F1FF"/>
</linearGradient>
</defs>
</svg>
