<svg width="68" height="66" viewBox="0 0 68 66" fill="none" xmlns="http://www.w3.org/2000/svg">
<g filter="url(#filter0_f)">
<path d="M32.773 2.11241C32.5629 1.96684 32.2819 1.96265 32.0659 2.09986C21.7276 8.66651 14.4858 17.3395 8.71043 25.766C10.2216 24.517 12.346 23.5716 14.0868 22.6907C14.165 22.6468 14.165 22.5524 14.0868 22.5088C13.6386 22.2535 13.1038 22.1751 12.7643 22.1522C12.6703 22.1456 12.6441 22.0218 12.7272 21.9778C14.9012 20.8339 17.7741 20.4817 18.9852 20.441C19.0772 20.4397 19.0581 20.3767 19.0421 20.3448C19.0327 20.3296 19.0245 20.3148 19.0156 20.3C18.565 19.5931 17.855 19.0778 17.4589 18.8278C17.3816 18.7782 17.4149 18.6615 17.5063 18.658C19.0034 18.6023 22.5816 17.8379 25.22 18.3283C25.3202 18.3466 25.3791 18.2435 25.3358 18.1523C25.075 17.5908 24.6216 17.0928 24.3386 16.897C24.2701 16.851 24.2944 16.7446 24.3762 16.7301C28.8364 15.9738 33.9474 17.6423 33.9474 17.6423C34.4713 17.7658 35.2451 17.3377 35.639 16.7992L37.4084 14.3793C37.4713 14.1811 37.7545 14.182 37.8166 14.3811C38.683 17.2157 40.2786 19.7783 42.4464 21.8181L51.8858 31.0544C52.1821 31.3445 52.1899 31.8171 51.9016 32.1164L49.0716 35.0474C48.6526 35.4921 47.995 35.6222 47.4364 35.3729L42.4798 34.0013C42.3102 33.9641 42.1406 33.9256 41.9712 33.8873L36.7253 32.9656C35.5447 32.7579 34.4673 32.1655 33.6644 31.2826L32.5187 30.0209C32.296 29.7753 31.9147 29.7555 31.6662 29.9751L26.8981 34.2062C24.9241 35.9447 24.0096 36.7053 22.1548 37.9935L18.7976 39.9573C22.1393 38.6868 30.1946 36.4924 36.3348 37.4588C36.5079 37.485 36.6177 37.6479 36.5799 37.8184C35.8113 41.3089 32.8599 47.206 29.8881 51.4045C29.6891 51.686 29.4295 51.9176 29.125 52.0808C27.8257 52.7774 24.0934 54.7802 22.7523 55.4999C22.5676 55.5986 22.354 55.4314 22.4073 55.2297L23.5659 50.8984C23.6751 50.4892 23.9772 50.158 24.3759 50.0074L26.5693 49.1786C27.0023 49.0159 27.3566 48.6959 27.5574 48.2827C28.12 47.1223 28.6622 45.4261 29.0058 43.6427C29.0463 43.4334 28.8713 43.244 28.6577 43.2694C23.2056 43.9142 13.9754 46.7746 9.81299 50.0175C6.85718 52.4319 4.46644 54.5719 2.14061 57.7472C1.85341 58.1396 2.02458 58.697 2.48672 58.8556C24.0418 66.2307 46.567 65.8568 65.1275 56.5608C65.3847 56.4328 65.5509 56.167 65.55 55.8818C65.4825 34.9263 49.6382 13.8849 32.773 2.11241Z" stroke="url(#paint0_linear)" stroke-width="2"/>
</g>
<g filter="url(#filter1_f)">
<path d="M32.773 2.11241C32.5629 1.96684 32.2819 1.96265 32.0659 2.09986C21.7276 8.66651 14.4858 17.3395 8.71042 25.766C10.2216 24.517 12.346 23.5716 14.0868 22.6907C14.165 22.6468 14.165 22.5524 14.0868 22.5088C13.6386 22.2535 13.1038 22.1751 12.7643 22.1522C12.6703 22.1456 12.6441 22.0218 12.7272 21.9778C14.9012 20.8339 17.7741 20.4817 18.9852 20.441V20.4401C19.0772 20.4388 19.0581 20.3767 19.0421 20.3448C19.0327 20.3296 19.0245 20.3148 19.0156 20.3C18.565 19.5931 17.855 19.0778 17.4589 18.8278C17.3816 18.7782 17.4149 18.6615 17.5063 18.658C19.0034 18.6023 22.5816 17.8379 25.22 18.3283C25.3202 18.3466 25.3791 18.2435 25.3358 18.1523C25.075 17.5908 24.6216 17.0928 24.3386 16.897C24.2701 16.851 24.2944 16.7446 24.3762 16.7301C28.8364 15.9738 33.9474 17.6423 33.9474 17.6423C34.4713 17.7658 35.2451 17.3377 35.639 16.7992L37.4084 14.3793C37.4713 14.1811 37.7545 14.182 37.8165 14.3811C38.683 17.2157 40.2786 19.7783 42.4464 21.8181L51.8858 31.0544C52.1821 31.3445 52.1899 31.8171 51.9016 32.1164L49.0716 35.0474C48.6526 35.4921 47.995 35.6222 47.4364 35.3729L42.4798 34.0013C42.3102 33.9641 42.1406 33.9256 41.9712 33.8873L36.7253 32.9656C35.5447 32.7579 34.4673 32.1655 33.6644 31.2826L32.5187 30.0209C32.296 29.7753 31.9147 29.7555 31.6662 29.9751L26.8981 34.2062C24.9241 35.9447 24.0096 36.7053 22.1548 37.9935L18.7975 39.9573C22.1393 38.6868 30.1946 36.4924 36.3348 37.4588C36.5079 37.485 36.6177 37.6479 36.5799 37.8184C35.8113 41.3089 32.8599 47.206 29.8881 51.4045C29.6891 51.686 29.4295 51.9176 29.125 52.0808C27.8257 52.7774 24.0934 54.7802 22.7523 55.4999C22.5676 55.5986 22.354 55.4314 22.4073 55.2297L23.5659 50.8984C23.6751 50.4892 23.9772 50.158 24.3759 50.0074L26.5693 49.1786C27.0023 49.0159 27.3566 48.6959 27.5574 48.2827C28.12 47.1223 28.6622 45.4261 29.0058 43.6427C29.0463 43.4334 28.8713 43.244 28.6577 43.2694C23.2056 43.9142 13.9754 46.7746 9.81299 50.0175C6.85718 52.4319 4.46644 54.5719 2.14061 57.7472C1.85341 58.1396 2.02458 58.697 2.48672 58.8556C24.0418 66.2307 46.567 65.8568 65.1275 56.5608C65.3846 56.4328 65.5509 56.167 65.55 55.8818C65.4825 34.9263 49.6382 13.8849 32.773 2.11241Z" stroke="url(#paint1_linear)" stroke-width="2"/>
</g>
<path d="M32.773 2.11241C32.5629 1.96684 32.2819 1.96265 32.0659 2.09986C21.7276 8.66651 14.4858 17.3395 8.71042 25.766C10.2216 24.517 12.346 23.5716 14.0868 22.6907C14.165 22.6468 14.165 22.5524 14.0868 22.5088C13.6386 22.2535 13.1038 22.1751 12.7643 22.1522C12.6703 22.1456 12.6441 22.0218 12.7272 21.9778C14.9012 20.8339 17.7741 20.4817 18.9852 20.441V20.4401C19.0772 20.4388 19.0581 20.3767 19.0421 20.3448C19.0327 20.3296 19.0245 20.3148 19.0156 20.3C18.565 19.5931 17.855 19.0778 17.4589 18.8278C17.3816 18.7782 17.4149 18.6615 17.5063 18.658C19.0034 18.6023 22.5816 17.8379 25.22 18.3283C25.3202 18.3466 25.3791 18.2435 25.3358 18.1523C25.075 17.5908 24.6216 17.0928 24.3386 16.897C24.2701 16.851 24.2944 16.7446 24.3762 16.7301C28.8364 15.9738 33.9474 17.6423 33.9474 17.6423C34.4713 17.7658 35.2451 17.3377 35.639 16.7992L37.4084 14.3793C37.4713 14.1811 37.7545 14.182 37.8165 14.3811C38.683 17.2157 40.2786 19.7783 42.4464 21.8181L51.8858 31.0544C52.1821 31.3445 52.1899 31.8171 51.9016 32.1164L49.0716 35.0474C48.6526 35.4921 47.995 35.6222 47.4364 35.3729L42.4798 34.0013C42.3102 33.9641 42.1406 33.9256 41.9712 33.8873L36.7253 32.9656C35.5447 32.7579 34.4673 32.1655 33.6644 31.2826L32.5187 30.0209C32.296 29.7753 31.9147 29.7555 31.6662 29.9751L26.8981 34.2062C24.9241 35.9447 24.0096 36.7053 22.1548 37.9935L18.7975 39.9573C22.1393 38.6868 30.1946 36.4924 36.3348 37.4588C36.5079 37.485 36.6177 37.6479 36.5799 37.8184C35.8113 41.3089 32.8599 47.206 29.8881 51.4045C29.6891 51.686 29.4295 51.9176 29.125 52.0808C27.8257 52.7774 24.0934 54.7802 22.7523 55.4999C22.5676 55.5986 22.354 55.4314 22.4073 55.2297L23.5659 50.8984C23.6751 50.4892 23.9772 50.158 24.3759 50.0074L26.5693 49.1786C27.0023 49.0159 27.3566 48.6959 27.5574 48.2827C28.12 47.1223 28.6622 45.4261 29.0058 43.6427C29.0463 43.4334 28.8713 43.244 28.6577 43.2694C23.2056 43.9142 13.9754 46.7746 9.81299 50.0175C6.85718 52.4319 4.46644 54.5719 2.14061 57.7472C1.85341 58.1396 2.02458 58.697 2.48672 58.8556C24.0418 66.2307 46.567 65.8568 65.1275 56.5608C65.3846 56.4328 65.5509 56.167 65.55 55.8818C65.4825 34.9263 49.6382 13.8849 32.773 2.11241Z" stroke="url(#paint2_linear)" stroke-width="0.6"/>
<defs>
<filter id="filter0_f" x="-9.15527e-05" y="0" width="67.5501" height="65.9999" filterUnits="userSpaceOnUse" color-interpolation-filters="sRGB">
<feFlood flood-opacity="0" result="BackgroundImageFix"/>
<feBlend mode="normal" in="SourceGraphic" in2="BackgroundImageFix" result="shape"/>
<feGaussianBlur stdDeviation="0.5" result="effect1_foregroundBlur"/>
</filter>
<filter id="filter1_f" x="-9.15527e-05" y="0" width="67.5501" height="65.9999" filterUnits="userSpaceOnUse" color-interpolation-filters="sRGB">
<feFlood flood-opacity="0" result="BackgroundImageFix"/>
<feBlend mode="normal" in="SourceGraphic" in2="BackgroundImageFix" result="shape"/>
<feGaussianBlur stdDeviation="0.5" result="effect1_foregroundBlur"/>
</filter>
<linearGradient id="paint0_linear" x1="-7.18519" y1="49.0741" x2="73.1852" y2="49.0741" gradientUnits="userSpaceOnUse">
<stop stop-color="#FF00B8"/>
<stop offset="1" stop-color="#00D1FF"/>
</linearGradient>
<linearGradient id="paint1_linear" x1="-4.31482" y1="51.9444" x2="73.7593" y2="51.9386" gradientUnits="userSpaceOnUse">
<stop stop-color="#FF00B8"/>
<stop offset="1" stop-color="#00D1FF"/>
</linearGradient>
<linearGradient id="paint2_linear" x1="-4.88889" y1="33" x2="72.6111" y2="33" gradientUnits="userSpaceOnUse">
<stop stop-color="#FFAEE8"/>
<stop offset="1" stop-color="#B0F1FF"/>
</linearGradient>
</defs>
</svg>
