<svg width="72" height="72" viewBox="0 0 72 72" fill="none" xmlns="http://www.w3.org/2000/svg">
<g filter="url(#filter0_f)">
<circle cx="36" cy="36" r="31.5493" stroke="url(#paint0_linear)" stroke-width="2"/>
<path d="M35.507 8.88732V1" stroke="url(#paint1_linear)" stroke-width="2"/>
<path d="M36.493 71V63.1127" stroke="url(#paint2_linear)" stroke-width="2"/>
<path d="M1 36.493H8.88732" stroke="url(#paint3_linear)" stroke-width="2"/>
<path d="M63.1127 37.4789H71" stroke="url(#paint4_linear)" stroke-width="2"/>
<path d="M21.2112 43.2766C21.2112 40.9869 25.7992 39.8335 28.0974 39.8335C30.3957 39.8335 34.9837 40.9869 34.9837 43.2766V45.8589H21.2112V43.2766Z" stroke="url(#paint5_linear)" stroke-width="2"/>
<path d="M24.6543 36.6775C24.6543 34.7752 26.1951 33.2344 28.0974 33.2344C29.9997 33.2344 31.5405 34.7752 31.5405 36.6775C31.5405 38.5798 29.9997 40.1206 28.0974 40.1206C26.1951 40.1206 24.6543 38.5798 24.6543 36.6775Z" stroke="url(#paint6_linear)" stroke-width="2"/>
<path d="M36.7494 43.2766C36.7494 40.9869 41.3373 39.8335 43.6356 39.8335C45.9339 39.8335 50.5218 40.9869 50.5218 43.2766V45.8589H36.7494V43.2766Z" stroke="url(#paint7_linear)" stroke-width="2"/>
<path d="M40.1925 36.6775C40.1925 34.7752 41.7333 33.2344 43.6357 33.2344C45.538 33.2344 47.0788 34.7752 47.0788 36.6775C47.0788 38.5798 45.538 40.1206 43.6357 40.1206C41.7333 40.1206 40.1925 38.5798 40.1925 36.6775Z" stroke="url(#paint8_linear)" stroke-width="2"/>
<path d="M42.7528 33.9353V33.2256C42.7528 30.936 38.1649 29.7825 35.8666 29.7825C33.5683 29.7825 28.9804 30.936 28.9804 33.2256V33.9353M40.8547 35.808H39.3097H35.8666H32.4235H30.9226" stroke="url(#paint9_linear)" stroke-width="2"/>
<path d="M32.4234 26.6262C32.4234 24.7239 33.9642 23.1831 35.8665 23.1831C37.7689 23.1831 39.3097 24.7239 39.3097 26.6262C39.3097 28.5285 37.7689 30.0693 35.8665 30.0693C33.9642 30.0693 32.4234 28.5285 32.4234 26.6262Z" stroke="url(#paint10_linear)" stroke-width="2"/>
</g>
<g filter="url(#filter1_f)">
<circle cx="36" cy="36" r="31.5493" stroke="url(#paint11_linear)" stroke-width="2"/>
<path d="M35.507 8.88732V1" stroke="url(#paint12_linear)" stroke-width="2"/>
<path d="M36.493 71V63.1127" stroke="url(#paint13_linear)" stroke-width="2"/>
<path d="M1 36.493H8.88732" stroke="url(#paint14_linear)" stroke-width="2"/>
<path d="M63.1127 37.4789H71" stroke="url(#paint15_linear)" stroke-width="2"/>
<path d="M21.2112 43.2766C21.2112 40.9869 25.7992 39.8335 28.0974 39.8335C30.3957 39.8335 34.9837 40.9869 34.9837 43.2766V45.8589H21.2112V43.2766Z" stroke="url(#paint16_linear)" stroke-width="2"/>
<path d="M24.6543 36.6775C24.6543 34.7752 26.1951 33.2344 28.0974 33.2344C29.9997 33.2344 31.5405 34.7752 31.5405 36.6775C31.5405 38.5798 29.9997 40.1206 28.0974 40.1206C26.1951 40.1206 24.6543 38.5798 24.6543 36.6775Z" stroke="url(#paint17_linear)" stroke-width="2"/>
<path d="M36.7494 43.2766C36.7494 40.9869 41.3373 39.8335 43.6356 39.8335C45.9339 39.8335 50.5218 40.9869 50.5218 43.2766V45.8589H36.7494V43.2766Z" stroke="url(#paint18_linear)" stroke-width="2"/>
<path d="M40.1925 36.6775C40.1925 34.7752 41.7333 33.2344 43.6357 33.2344C45.538 33.2344 47.0788 34.7752 47.0788 36.6775C47.0788 38.5798 45.538 40.1206 43.6357 40.1206C41.7333 40.1206 40.1925 38.5798 40.1925 36.6775Z" stroke="url(#paint19_linear)" stroke-width="2"/>
<path d="M42.7528 33.9353V33.2256C42.7528 30.936 38.1649 29.7825 35.8666 29.7825C33.5683 29.7825 28.9804 30.936 28.9804 33.2256V33.9353M40.8547 35.808H39.3097H35.8666H32.4235H30.9226" stroke="url(#paint20_linear)" stroke-width="2"/>
<path d="M32.4234 26.6262C32.4234 24.7239 33.9642 23.1831 35.8665 23.1831C37.7689 23.1831 39.3097 24.7239 39.3097 26.6262C39.3097 28.5285 37.7689 30.0693 35.8665 30.0693C33.9642 30.0693 32.4234 28.5285 32.4234 26.6262Z" stroke="url(#paint21_linear)" stroke-width="2"/>
</g>
<circle cx="36" cy="36" r="31.5493" stroke="url(#paint22_linear)" stroke-width="0.6"/>
<path d="M35.507 8.88732V1" stroke="url(#paint23_linear)" stroke-width="0.6"/>
<path d="M36.493 71V63.1127" stroke="url(#paint24_linear)" stroke-width="0.6"/>
<path d="M1 36.493H8.88732" stroke="url(#paint25_linear)" stroke-width="0.6"/>
<path d="M63.1127 37.4789H71" stroke="url(#paint26_linear)" stroke-width="0.6"/>
<path d="M21.2112 43.5839C21.2112 41.2942 25.7992 40.1407 28.0974 40.1407C30.3957 40.1407 34.9837 41.2942 34.9837 43.5839V46.1662H21.2112V43.5839Z" stroke="url(#paint27_linear)" stroke-width="0.6"/>
<path d="M24.6543 36.6775C24.6543 34.7752 26.1951 33.2344 28.0974 33.2344C29.9997 33.2344 31.5405 34.7752 31.5405 36.6775C31.5405 38.5798 29.9997 40.1206 28.0974 40.1206C26.1951 40.1206 24.6543 38.5798 24.6543 36.6775Z" stroke="url(#paint28_linear)" stroke-width="0.6"/>
<path d="M36.7494 43.5839C36.7494 41.2942 41.3373 40.1407 43.6356 40.1407C45.9339 40.1407 50.5218 41.2942 50.5218 43.5839V46.1662H36.7494V43.5839Z" stroke="url(#paint29_linear)" stroke-width="0.6"/>
<path d="M40.1925 36.6775C40.1925 34.7752 41.7333 33.2344 43.6357 33.2344C45.538 33.2344 47.0788 34.7752 47.0788 36.6775C47.0788 38.5798 45.538 40.1206 43.6357 40.1206C41.7333 40.1206 40.1925 38.5798 40.1925 36.6775Z" stroke="url(#paint30_linear)" stroke-width="0.6"/>
<path d="M29.0985 33.4648C29.0985 31.2169 33.6966 30.0845 36 30.0845C38.3033 30.0845 42.9014 31.2169 42.9014 33.4648M39.9436 36H39.4507H36H32.5492H31.5633" stroke="url(#paint31_linear)" stroke-width="0.6"/>
<path d="M32.4234 26.6262C32.4234 24.7239 33.9642 23.1831 35.8665 23.1831C37.7688 23.1831 39.3096 24.7239 39.3096 26.6262C39.3096 28.5285 37.7688 30.0693 35.8665 30.0693C33.9642 30.0693 32.4234 28.5285 32.4234 26.6262Z" stroke="url(#paint32_linear)" stroke-width="0.6"/>
<defs>
<filter id="filter0_f" x="0" y="0" width="72" height="72" filterUnits="userSpaceOnUse" color-interpolation-filters="sRGB">
<feFlood flood-opacity="0" result="BackgroundImageFix"/>
<feBlend mode="normal" in="SourceGraphic" in2="BackgroundImageFix" result="shape"/>
<feGaussianBlur stdDeviation="0.5" result="effect1_foregroundBlur"/>
</filter>
<filter id="filter1_f" x="0" y="0" width="72" height="72" filterUnits="userSpaceOnUse" color-interpolation-filters="sRGB">
<feFlood flood-opacity="0" result="BackgroundImageFix"/>
<feBlend mode="normal" in="SourceGraphic" in2="BackgroundImageFix" result="shape"/>
<feGaussianBlur stdDeviation="0.5" result="effect1_foregroundBlur"/>
</filter>
<linearGradient id="paint0_linear" x1="-6.32222" y1="35.2305" x2="76.7832" y2="35.2305" gradientUnits="userSpaceOnUse">
<stop stop-color="#FF00B8"/>
<stop offset="1" stop-color="#00D1FF"/>
</linearGradient>
<linearGradient id="paint1_linear" x1="7.00705" y1="8.39436" x2="66.5071" y2="8.39436" gradientUnits="userSpaceOnUse">
<stop stop-color="#FF00B8"/>
<stop offset="1" stop-color="#00D1FF"/>
</linearGradient>
<linearGradient id="paint2_linear" x1="5.49295" y1="70.507" x2="66.4929" y2="70.507" gradientUnits="userSpaceOnUse">
<stop stop-color="#FF00B8"/>
<stop offset="1" stop-color="#00D1FF"/>
</linearGradient>
<linearGradient id="paint3_linear" x1="-1.95775" y1="37.493" x2="71.986" y2="37.979" gradientUnits="userSpaceOnUse">
<stop stop-color="#FF00B8"/>
<stop offset="1" stop-color="#00D1FF"/>
</linearGradient>
<linearGradient id="paint4_linear" x1="0.999995" y1="36.9789" x2="72.9718" y2="36.9789" gradientUnits="userSpaceOnUse">
<stop stop-color="#FF00B8"/>
<stop offset="1" stop-color="#00D1FF"/>
</linearGradient>
<linearGradient id="paint5_linear" x1="0.506987" y1="36.4928" x2="71.4929" y2="36.9857" gradientUnits="userSpaceOnUse">
<stop stop-color="#FF00B8"/>
<stop offset="1" stop-color="#00D1FF"/>
</linearGradient>
<linearGradient id="paint6_linear" x1="0.999938" y1="35.014" x2="70.014" y2="35.014" gradientUnits="userSpaceOnUse">
<stop stop-color="#FF00B8"/>
<stop offset="1" stop-color="#00D1FF"/>
</linearGradient>
<linearGradient id="paint7_linear" x1="1.49295" y1="39.9435" x2="69.5211" y2="39.9435" gradientUnits="userSpaceOnUse">
<stop stop-color="#FF00B8"/>
<stop offset="1" stop-color="#00D1FF"/>
</linearGradient>
<linearGradient id="paint8_linear" x1="-0.478885" y1="38.4647" x2="71.4929" y2="36.9858" gradientUnits="userSpaceOnUse">
<stop stop-color="#FF00B8"/>
<stop offset="1" stop-color="#00D1FF"/>
</linearGradient>
<linearGradient id="paint9_linear" x1="-0.478902" y1="33.0423" x2="71.4929" y2="33.0423" gradientUnits="userSpaceOnUse">
<stop stop-color="#FF00B8"/>
<stop offset="1" stop-color="#00D1FF"/>
</linearGradient>
<linearGradient id="paint10_linear" x1="0.507007" y1="28.6056" x2="70.014" y2="28.1127" gradientUnits="userSpaceOnUse">
<stop stop-color="#FF00B8"/>
<stop offset="1" stop-color="#00D1FF"/>
</linearGradient>
<linearGradient id="paint11_linear" x1="-6.32222" y1="35.2305" x2="76.7832" y2="35.2305" gradientUnits="userSpaceOnUse">
<stop stop-color="#FF00B8"/>
<stop offset="1" stop-color="#00D1FF"/>
</linearGradient>
<linearGradient id="paint12_linear" x1="7.00705" y1="8.39436" x2="66.5071" y2="8.39436" gradientUnits="userSpaceOnUse">
<stop stop-color="#FF00B8"/>
<stop offset="1" stop-color="#00D1FF"/>
</linearGradient>
<linearGradient id="paint13_linear" x1="5.49295" y1="70.507" x2="66.4929" y2="70.507" gradientUnits="userSpaceOnUse">
<stop stop-color="#FF00B8"/>
<stop offset="1" stop-color="#00D1FF"/>
</linearGradient>
<linearGradient id="paint14_linear" x1="-1.95775" y1="37.493" x2="71.986" y2="37.979" gradientUnits="userSpaceOnUse">
<stop stop-color="#FF00B8"/>
<stop offset="1" stop-color="#00D1FF"/>
</linearGradient>
<linearGradient id="paint15_linear" x1="0.999995" y1="36.9789" x2="72.9718" y2="36.9789" gradientUnits="userSpaceOnUse">
<stop stop-color="#FF00B8"/>
<stop offset="1" stop-color="#00D1FF"/>
</linearGradient>
<linearGradient id="paint16_linear" x1="0.506987" y1="36.4928" x2="71.4929" y2="36.9857" gradientUnits="userSpaceOnUse">
<stop stop-color="#FF00B8"/>
<stop offset="1" stop-color="#00D1FF"/>
</linearGradient>
<linearGradient id="paint17_linear" x1="0.999938" y1="35.014" x2="70.014" y2="35.014" gradientUnits="userSpaceOnUse">
<stop stop-color="#FF00B8"/>
<stop offset="1" stop-color="#00D1FF"/>
</linearGradient>
<linearGradient id="paint18_linear" x1="1.49295" y1="39.9435" x2="69.5211" y2="39.9435" gradientUnits="userSpaceOnUse">
<stop stop-color="#FF00B8"/>
<stop offset="1" stop-color="#00D1FF"/>
</linearGradient>
<linearGradient id="paint19_linear" x1="-0.478885" y1="38.4647" x2="71.4929" y2="36.9858" gradientUnits="userSpaceOnUse">
<stop stop-color="#FF00B8"/>
<stop offset="1" stop-color="#00D1FF"/>
</linearGradient>
<linearGradient id="paint20_linear" x1="-0.478902" y1="33.0423" x2="71.4929" y2="33.0423" gradientUnits="userSpaceOnUse">
<stop stop-color="#FF00B8"/>
<stop offset="1" stop-color="#00D1FF"/>
</linearGradient>
<linearGradient id="paint21_linear" x1="0.507007" y1="28.6056" x2="70.014" y2="28.1127" gradientUnits="userSpaceOnUse">
<stop stop-color="#FF00B8"/>
<stop offset="1" stop-color="#00D1FF"/>
</linearGradient>
<linearGradient id="paint22_linear" x1="-6.32222" y1="35.2305" x2="76.7832" y2="35.2305" gradientUnits="userSpaceOnUse">
<stop stop-color="#FFAEE8"/>
<stop offset="1" stop-color="#B0F1FF"/>
</linearGradient>
<linearGradient id="paint23_linear" x1="7.00705" y1="8.39436" x2="66.5071" y2="8.39436" gradientUnits="userSpaceOnUse">
<stop stop-color="#FFAEE8"/>
<stop offset="1" stop-color="#B0F1FF"/>
</linearGradient>
<linearGradient id="paint24_linear" x1="5.49295" y1="70.507" x2="66.4929" y2="70.507" gradientUnits="userSpaceOnUse">
<stop stop-color="#FFAEE8"/>
<stop offset="1" stop-color="#B0F1FF"/>
</linearGradient>
<linearGradient id="paint25_linear" x1="-1.95775" y1="37.493" x2="71.986" y2="37.979" gradientUnits="userSpaceOnUse">
<stop stop-color="#FFAEE8"/>
<stop offset="1" stop-color="#B0F1FF"/>
</linearGradient>
<linearGradient id="paint26_linear" x1="0.999995" y1="36.9789" x2="72.9718" y2="36.9789" gradientUnits="userSpaceOnUse">
<stop stop-color="#FFAEE8"/>
<stop offset="1" stop-color="#B0F1FF"/>
</linearGradient>
<linearGradient id="paint27_linear" x1="0.506987" y1="36.8" x2="71.4929" y2="37.293" gradientUnits="userSpaceOnUse">
<stop stop-color="#FFAEE8"/>
<stop offset="1" stop-color="#B0F1FF"/>
</linearGradient>
<linearGradient id="paint28_linear" x1="0.999938" y1="35.014" x2="70.014" y2="35.014" gradientUnits="userSpaceOnUse">
<stop stop-color="#FFAEE8"/>
<stop offset="1" stop-color="#B0F1FF"/>
</linearGradient>
<linearGradient id="paint29_linear" x1="1.49295" y1="40.2508" x2="69.5211" y2="40.2507" gradientUnits="userSpaceOnUse">
<stop stop-color="#FFAEE8"/>
<stop offset="1" stop-color="#B0F1FF"/>
</linearGradient>
<linearGradient id="paint30_linear" x1="-0.478885" y1="38.4647" x2="71.4929" y2="36.9858" gradientUnits="userSpaceOnUse">
<stop stop-color="#FFAEE8"/>
<stop offset="1" stop-color="#B0F1FF"/>
</linearGradient>
<linearGradient id="paint31_linear" x1="-0.425662" y1="33.2848" x2="71.7048" y2="33.2848" gradientUnits="userSpaceOnUse">
<stop stop-color="#FFAEE8"/>
<stop offset="1" stop-color="#B0F1FF"/>
</linearGradient>
<linearGradient id="paint32_linear" x1="0.506976" y1="28.6056" x2="70.014" y2="28.1127" gradientUnits="userSpaceOnUse">
<stop stop-color="#FFAEE8"/>
<stop offset="1" stop-color="#B0F1FF"/>
</linearGradient>
</defs>
</svg>
